<svg xmlns="http://www.w3.org/2000/svg" xmlns:xlink="http://www.w3.org/1999/xlink" version="1.1" x="0px" y="0px" viewBox="0 0 100 125" style="enable-background:new 0 0 100 100;" xml:space="preserve"><path d="M42.1,38.9c0-0.6,0.1-1.2,0.2-1.7c-4.7-0.8-9-2.7-9-7.4c0-7.9,6-12.7,11.2-12.7c0,0-0.2-4.1-5.1-4.1  c1.9-3.4-0.9-9.4-6.3-8.7c0,0,2.2,5.8-0.3,11.9c-2.6,6.1-6.4,8.1-6.4,15.6c0,6.2,4,12.3,18.6,13.5C43.2,43.6,42.1,41.4,42.1,38.9z"/><path d="M68.5,16.1C65.9,10,68.1,4.2,68.1,4.2c-5.4-0.7-8.2,5.3-6.3,8.7c-4.9,0-5.1,4.1-5.1,4.1c5.3,0,11.2,4.8,11.2,12.7  c0,4.7-4.3,6.6-9,7.4c0.1,0.6,0.2,1.1,0.2,1.7c0,2.5-1.1,4.8-2.9,6.3C70.8,44,74.8,38,74.8,31.7C74.8,24.2,71,22.2,68.5,16.1z"/><path d="M66.7,51.4L66.7,51.4c-4.5,1.2-10.1,1.9-16.1,1.9c-4.6,0-11-0.4-16.1-2l0,0l-0.1,0.2l-0.7,1.9c4.5,1.7,10.5,2.8,16.9,2.8  s12.4-1.1,16.9-2.8l-0.7-1.9L66.7,51.4z"/><path d="M50.6,52.3c6.1,0,11.8-0.7,16.2-2.1c0.3-3.2,1.5-5.8,3-7.8c-3,1.9-7.3,3.3-13.5,3.8l-1.4,0.1c-1.3,0.7-2.7,1.2-4.3,1.2  s-3-0.4-4.3-1.2l-1.4-0.1c-6.2-0.5-10.6-1.9-13.5-3.8c1.5,2.1,2.7,4.6,3,7.8C38.4,51.6,44,52.3,50.6,52.3z"/><rect x="49.8" y="25" width="1.6" height="5.3"/><path d="M34.4,30.7c0.5,2.8,3.1,4.6,8.1,5.4c1-2.9,3.4-5.1,6.3-5.7v-0.1v-4.7C43.4,25.9,38.5,27.8,34.4,30.7z"/><path d="M58.7,36.1c4.9-0.8,7.6-2.6,8.1-5.4c-4.1-2.9-9-4.8-14.4-5.1v4.7v0.1C55.4,31.1,57.8,33.3,58.7,36.1z"/><path d="M50.6,31.2c-4.2,0-7.6,3.4-7.6,7.6c0,4.2,3.4,7.6,7.6,7.6s7.6-3.4,7.6-7.6C58.2,34.6,54.8,31.2,50.6,31.2z M50.6,40.1  c-0.7,0-1.2-0.6-1.2-1.2s0.6-1.2,1.2-1.2s1.2,0.6,1.2,1.2S51.3,40.1,50.6,40.1z"/><path d="M33.5,51.2c-0.4-9.8-9.3-13.9-12.3-14.3L13,48.8c13.1-0.1,14.4,12.8,13.7,19.6L33.5,51.2z M22.2,45.3  c-0.7,0-1.2-0.6-1.2-1.2s0.6-1.2,1.2-1.2s1.2,0.6,1.2,1.2S22.9,45.3,22.2,45.3z"/><path d="M88.2,48.8l-8.2-11.9c-3,0.3-11.9,4.5-12.3,14.3l6.8,17.3C73.8,61.7,75.1,48.7,88.2,48.8z M77.8,44.1c0-0.7,0.6-1.2,1.2-1.2  s1.2,0.6,1.2,1.2s-0.6,1.2-1.2,1.2S77.8,44.8,77.8,44.1z"/><path d="M61.4,81.3c0-0.8-0.5-2.4-1-2.9c-2.9,0.5-5.8,1.9-9.8,1.9s-6.9-1.3-9.8-1.9c-0.5,0.5-1,2.1-1,2.9c0,1.2,0.1,1.4,0.5,1.7  c2.7-1.4,6.3-2.2,10.3-2.2s7.6,0.8,10.3,2.2C61.3,82.7,61.4,82.4,61.4,81.3z"/><circle cx="50.6" cy="92.9" r="4.4"/><path d="M21.3,71.8c1.4-0.9,3.5-2.3,4.4-3.4l0,0c0.2-2.3,0.7-10.2-3.6-15c0,0-0.1-0.1-0.1-0.1l-1.3,4l-1.2,1l-0.8,3l-1,0.7l-1,3.3  l-1.1,0.6l-1.8,5l-1.3,0.5l-1,3C14.1,73.2,17.6,72.4,21.3,71.8z"/><path d="M75.5,68.4c1,1.1,3.1,2.5,4.4,3.4c3.6,0.6,7.2,1.5,9.8,2.5l-1-3l-1.3-0.5l-1.8-5l-1.1-0.6l-1-3.3l-1-0.7l-0.8-3l-1.2-1  l-1.3-4c0,0-0.1,0.1-0.1,0.1C74.9,58.1,75.3,66,75.5,68.4L75.5,68.4z"/><path d="M27,72c-6.3,0.6-14,2.1-17.2,4.2c-1.3,3.2-2.6,5.4-3.9,8.6c5.6-2.9,12.6-3.6,19.1-4L27,72z"/><path d="M76.3,80.9c6.5,0.4,13.5,1.1,19.1,4c-1.3-3.2-2.6-5.4-3.9-8.6c-3.3-2.1-11-3.7-17.2-4.2L76.3,80.9z"/><path d="M73,69.1l-2.6-7.1c0,0-0.3-0.5-0.9-1c-0.7-0.5-1.7-0.3-1.7-0.3c1.1,1.3,0.1,2.6-0.8,3.2c-0.9,0.5-3.6-3.1-7.2-3.6  c-3.6-0.5-5.9,3-5.9,3s0.9-1.9-2.4-2h-0.5h-0.6h-0.5c-3.2,0.1-2.4,2-2.4,2s-2.3-3.4-5.9-3c-3.6,0.5-6.3,4.1-7.2,3.6  c-0.9-0.5-1.9-1.8-0.8-3.2c0,0-1.1-0.2-1.7,0.3c-0.7,0.5-0.9,1-0.9,1l-2.6,7.1c0,0-1.1,4.9,2.4,6.5c3.4,1.6,4.9,4.7,5.4,7.7  c0.4,2.4,3.2,8.9,9.3,11.4c-0.2-0.6-0.4-1.3-0.4-2c0-3.1,2.5-5.6,5.6-5.6c3.1,0,5.6,2.5,5.6,5.6c0,0.7-0.1,1.4-0.4,2  c6.1-2.4,8.9-9,9.3-11.4c0.5-3,2-6.1,5.4-7.7C74,74,73,69.1,73,69.1z M55.6,66.4c1.7-0.6,2.2,2.2-0.2,2.7S52.7,70,52.7,70  S53.9,67,55.6,66.4z M50.1,71.4c0-0.3,0.2-0.5,0.5-0.5s0.5,0.2,0.5,0.5v4.4c0,0.3-0.2,0.5-0.5,0.5s-0.5-0.2-0.5-0.5V71.4z M48.6,70  c0,0-0.4-0.3-2.8-0.9s-1.9-3.3-0.2-2.7C47.4,67,48.6,70,48.6,70z M35.7,76.9c-0.1,0.2-0.3,0.4-0.5,0.4c0,0-0.1,0-0.1,0  c-0.1,0-0.7-0.8-1.7-1.4c-0.8-0.5-1.8-1-2.4-1.3c5.1-1.3,6.3-7.5,13.6-11.7c0.2-0.1,0.5,0,0.7,0.2c0.1,0.2,0,0.5-0.2,0.7  C40.5,66.2,37.1,71,35.7,76.9z M60.9,84.1c-2.6-1.5-6.3-1.4-10.4-1.4s-7.8-0.2-10.4,1.4c-0.9-0.6-1.5-0.8-1.5-2.9  c0-1.4,1.2-3.4,1.6-4c3.3,0.6,6.2,0.9,10.2,0.9c4.3,0,6.7-0.3,10.2-0.9c0.5,0.6,1.6,2.6,1.6,4C62.4,83.4,61.9,83.5,60.9,84.1z   M67.9,75.8c-1,0.6-1.6,1.4-1.7,1.4c0,0-0.1,0-0.1,0c-0.2,0-0.4-0.2-0.5-0.4c-1.4-5.9-4.8-10.8-9.3-13.2C56,63.6,55.9,63.3,56,63  c0.1-0.2,0.4-0.3,0.7-0.2c7.3,4.1,8.5,10.3,13.6,11.7C69.7,74.8,68.7,75.3,67.9,75.8z"/><text x="0" y="115" fill="#000000" font-size="5px" font-weight="bold" font-family="'Helvetica Neue', Helvetica, Arial-Unicode, Arial, Sans-serif">Created by Damián Patrignani</text><text x="0" y="120" fill="#000000" font-size="5px" font-weight="bold" font-family="'Helvetica Neue', Helvetica, Arial-Unicode, Arial, Sans-serif">from the Noun Project</text></svg>